<svg width="145" height="145" viewBox="0 0 145 145" fill="none" xmlns="http://www.w3.org/2000/svg">
<g clip-path="url(#clip0_36_299)">
<rect width="145" height="145" fill="#0B0B0B"/>
<g filter="url(#filter0_ii_36_299)">
<path d="M26.776 38.7482L15.3996 14.7314C14.9973 13.8822 15.8822 12.9973 16.7314 13.3996L40.7482 24.776C40.9569 24.8748 41.125 25.0429 41.2239 25.2516L52.6003 49.2684C53.0025 50.1176 52.1176 51.0025 51.2684 50.6003L27.2516 39.2239C27.0429 39.125 26.8748 38.9569 26.776 38.7482Z" fill="#0F0F0F"/>
</g>
<g filter="url(#filter1_ii_36_299)">
<path d="M99.575 111.547L88.1986 87.5305C87.7964 86.6813 88.6813 85.7964 89.5305 86.1986L113.547 97.575C113.756 97.6739 113.924 97.842 114.023 98.0507L125.399 122.068C125.802 122.917 124.917 123.802 124.068 123.399L100.051 112.023C99.842 111.924 99.6739 111.756 99.575 111.547Z" fill="#0F0F0F"/>
</g>
<g filter="url(#filter2_ii_36_299)">
<path d="M99.575 38.5473L88.1986 14.5305C87.7964 13.6813 88.6813 12.7964 89.5305 13.1986L113.547 24.575C113.756 24.6739 113.924 24.842 114.023 25.0507L125.399 49.0675C125.802 49.9167 124.917 50.8016 124.068 50.3993L100.051 39.0229C99.842 38.9241 99.6739 38.756 99.575 38.5473Z" fill="#0F0F0F"/>
</g>
<g filter="url(#filter3_ii_36_299)">
<path d="M26.575 111.547L15.1986 87.5305C14.7964 86.6813 15.6813 85.7964 16.5305 86.1986L40.5473 97.575C40.756 97.6739 40.9241 97.842 41.0229 98.0507L52.3993 122.068C52.8016 122.917 51.9167 123.802 51.0675 123.399L27.0507 112.023C26.842 111.924 26.6739 111.756 26.575 111.547Z" fill="#0F0F0F"/>
</g>
<g filter="url(#filter4_ii_36_299)">
<path d="M-4.94939 57.575L19.0674 46.1986C19.9166 45.7964 20.8015 46.6813 20.3993 47.5305L9.02287 71.5473C8.924 71.756 8.75593 71.9241 8.54721 72.0229L-15.4696 83.3993C-16.3188 83.8016 -17.2037 82.9167 -16.8014 82.0675L-5.42505 58.0507C-5.32618 57.842 -5.15811 57.6739 -4.94939 57.575Z" fill="#0F0F0F"/>
</g>
<g filter="url(#filter5_ii_36_299)">
<path d="M-4.94939 130.575L19.0674 119.199C19.9166 118.796 20.8015 119.681 20.3993 120.53L9.02287 144.547C8.924 144.756 8.75593 144.924 8.54721 145.023L-15.4696 156.399C-16.3188 156.802 -17.2037 155.917 -16.8014 155.068L-5.42505 131.051C-5.32618 130.842 -5.15811 130.674 -4.94939 130.575Z" fill="#0F0F0F"/>
</g>
<g filter="url(#filter6_ii_36_299)">
<path d="M67.0506 130.575L91.0674 119.199C91.9166 118.796 92.8015 119.681 92.3993 120.53L81.0229 144.547C80.924 144.756 80.7559 144.924 80.5472 145.023L56.5304 156.399C55.6812 156.802 54.7963 155.917 55.1986 155.068L66.575 131.051C66.6738 130.842 66.8419 130.674 67.0506 130.575Z" fill="#0F0F0F"/>
</g>
<g filter="url(#filter7_ii_36_299)">
<path d="M140.051 130.575L164.067 119.199C164.917 118.796 165.801 119.681 165.399 120.53L154.023 144.547C153.924 144.756 153.756 144.924 153.547 145.023L129.53 156.399C128.681 156.802 127.796 155.917 128.199 155.068L139.575 131.051C139.674 130.842 139.842 130.674 140.051 130.575Z" fill="#0F0F0F"/>
</g>
<g filter="url(#filter8_ii_36_299)">
<path d="M140.051 57.575L164.067 46.1986C164.917 45.7964 165.801 46.6813 165.399 47.5305L154.023 71.5473C153.924 71.756 153.756 71.9241 153.547 72.0229L129.53 83.3993C128.681 83.8016 127.796 82.9167 128.199 82.0675L139.575 58.0507C139.674 57.842 139.842 57.6739 140.051 57.575Z" fill="#0F0F0F"/>
</g>
<g filter="url(#filter9_ii_36_299)">
<path d="M140.051 -14.425L164.067 -25.8014C164.917 -26.2036 165.801 -25.3187 165.399 -24.4695L154.023 -0.452708C153.924 -0.243987 153.756 -0.0759226 153.547 0.0229448L129.53 11.3993C128.681 11.8016 127.796 10.9167 128.199 10.0675L139.575 -13.9493C139.674 -14.158 139.842 -14.3261 140.051 -14.425Z" fill="#0F0F0F"/>
</g>
<g filter="url(#filter10_ii_36_299)">
<path d="M67.0506 57.575L91.0674 46.1986C91.9166 45.7964 92.8015 46.6813 92.3993 47.5305L81.0229 71.5473C80.924 71.756 80.7559 71.9241 80.5472 72.0229L56.5304 83.3993C55.6812 83.8016 54.7963 82.9167 55.1986 82.0675L66.575 58.0507C66.6738 57.842 66.8419 57.6739 67.0506 57.575Z" fill="#0F0F0F"/>
</g>
<g filter="url(#filter11_ii_36_299)">
<path d="M-4.94939 -14.425L19.0674 -25.8014C19.9166 -26.2036 20.8015 -25.3187 20.3993 -24.4695L9.02287 -0.452708C8.924 -0.243987 8.75593 -0.0759226 8.54721 0.0229448L-15.4696 11.3993C-16.3188 11.8016 -17.2037 10.9167 -16.8014 10.0675L-5.42505 -13.9493C-5.32618 -14.158 -5.15811 -14.3261 -4.94939 -14.425Z" fill="#0F0F0F"/>
</g>
<g filter="url(#filter12_ii_36_299)">
<path d="M67.0506 -14.425L91.0674 -25.8014C91.9166 -26.2036 92.8015 -25.3187 92.3993 -24.4695L81.0229 -0.452708C80.924 -0.243987 80.7559 -0.0759226 80.5472 0.0229448L56.5304 11.3993C55.6812 11.8016 54.7963 10.9167 55.1986 10.0675L66.575 -13.9493C66.6738 -14.158 66.8419 -14.3261 67.0506 -14.425Z" fill="#0F0F0F"/>
</g>
</g>
<defs>
<filter id="filter0_ii_36_299" x="15.2996" y="9.29956" width="37.4009" height="43.4009" filterUnits="userSpaceOnUse" color-interpolation-filters="sRGB">
<feFlood flood-opacity="0" result="BackgroundImageFix"/>
<feBlend mode="normal" in="SourceGraphic" in2="BackgroundImageFix" result="shape"/>
<feColorMatrix in="SourceAlpha" type="matrix" values="0 0 0 0 0 0 0 0 0 0 0 0 0 0 0 0 0 0 127 0" result="hardAlpha"/>
<feOffset dy="-4"/>
<feGaussianBlur stdDeviation="2"/>
<feComposite in2="hardAlpha" operator="arithmetic" k2="-1" k3="1"/>
<feColorMatrix type="matrix" values="0 0 0 0 0 0 0 0 0 0 0 0 0 0 0 0 0 0 0.6 0"/>
<feBlend mode="normal" in2="shape" result="effect1_innerShadow_36_299"/>
<feColorMatrix in="SourceAlpha" type="matrix" values="0 0 0 0 0 0 0 0 0 0 0 0 0 0 0 0 0 0 127 0" result="hardAlpha"/>
<feOffset dy="2"/>
<feGaussianBlur stdDeviation="2"/>
<feComposite in2="hardAlpha" operator="arithmetic" k2="-1" k3="1"/>
<feColorMatrix type="matrix" values="0 0 0 0 1 0 0 0 0 1 0 0 0 0 1 0 0 0 0.06 0"/>
<feBlend mode="normal" in2="effect1_innerShadow_36_299" result="effect2_innerShadow_36_299"/>
</filter>
<filter id="filter1_ii_36_299" x="88.0986" y="82.0986" width="37.4009" height="43.4009" filterUnits="userSpaceOnUse" color-interpolation-filters="sRGB">
<feFlood flood-opacity="0" result="BackgroundImageFix"/>
<feBlend mode="normal" in="SourceGraphic" in2="BackgroundImageFix" result="shape"/>
<feColorMatrix in="SourceAlpha" type="matrix" values="0 0 0 0 0 0 0 0 0 0 0 0 0 0 0 0 0 0 127 0" result="hardAlpha"/>
<feOffset dy="-4"/>
<feGaussianBlur stdDeviation="2"/>
<feComposite in2="hardAlpha" operator="arithmetic" k2="-1" k3="1"/>
<feColorMatrix type="matrix" values="0 0 0 0 0 0 0 0 0 0 0 0 0 0 0 0 0 0 0.6 0"/>
<feBlend mode="normal" in2="shape" result="effect1_innerShadow_36_299"/>
<feColorMatrix in="SourceAlpha" type="matrix" values="0 0 0 0 0 0 0 0 0 0 0 0 0 0 0 0 0 0 127 0" result="hardAlpha"/>
<feOffset dy="2"/>
<feGaussianBlur stdDeviation="2"/>
<feComposite in2="hardAlpha" operator="arithmetic" k2="-1" k3="1"/>
<feColorMatrix type="matrix" values="0 0 0 0 1 0 0 0 0 1 0 0 0 0 1 0 0 0 0.06 0"/>
<feBlend mode="normal" in2="effect1_innerShadow_36_299" result="effect2_innerShadow_36_299"/>
</filter>
<filter id="filter2_ii_36_299" x="88.0986" y="9.09863" width="37.4009" height="43.4009" filterUnits="userSpaceOnUse" color-interpolation-filters="sRGB">
<feFlood flood-opacity="0" result="BackgroundImageFix"/>
<feBlend mode="normal" in="SourceGraphic" in2="BackgroundImageFix" result="shape"/>
<feColorMatrix in="SourceAlpha" type="matrix" values="0 0 0 0 0 0 0 0 0 0 0 0 0 0 0 0 0 0 127 0" result="hardAlpha"/>
<feOffset dy="-4"/>
<feGaussianBlur stdDeviation="2"/>
<feComposite in2="hardAlpha" operator="arithmetic" k2="-1" k3="1"/>
<feColorMatrix type="matrix" values="0 0 0 0 0 0 0 0 0 0 0 0 0 0 0 0 0 0 0.6 0"/>
<feBlend mode="normal" in2="shape" result="effect1_innerShadow_36_299"/>
<feColorMatrix in="SourceAlpha" type="matrix" values="0 0 0 0 0 0 0 0 0 0 0 0 0 0 0 0 0 0 127 0" result="hardAlpha"/>
<feOffset dy="2"/>
<feGaussianBlur stdDeviation="2"/>
<feComposite in2="hardAlpha" operator="arithmetic" k2="-1" k3="1"/>
<feColorMatrix type="matrix" values="0 0 0 0 1 0 0 0 0 1 0 0 0 0 1 0 0 0 0.06 0"/>
<feBlend mode="normal" in2="effect1_innerShadow_36_299" result="effect2_innerShadow_36_299"/>
</filter>
<filter id="filter3_ii_36_299" x="15.0986" y="82.0986" width="37.4009" height="43.4009" filterUnits="userSpaceOnUse" color-interpolation-filters="sRGB">
<feFlood flood-opacity="0" result="BackgroundImageFix"/>
<feBlend mode="normal" in="SourceGraphic" in2="BackgroundImageFix" result="shape"/>
<feColorMatrix in="SourceAlpha" type="matrix" values="0 0 0 0 0 0 0 0 0 0 0 0 0 0 0 0 0 0 127 0" result="hardAlpha"/>
<feOffset dy="-4"/>
<feGaussianBlur stdDeviation="2"/>
<feComposite in2="hardAlpha" operator="arithmetic" k2="-1" k3="1"/>
<feColorMatrix type="matrix" values="0 0 0 0 0 0 0 0 0 0 0 0 0 0 0 0 0 0 0.6 0"/>
<feBlend mode="normal" in2="shape" result="effect1_innerShadow_36_299"/>
<feColorMatrix in="SourceAlpha" type="matrix" values="0 0 0 0 0 0 0 0 0 0 0 0 0 0 0 0 0 0 127 0" result="hardAlpha"/>
<feOffset dy="2"/>
<feGaussianBlur stdDeviation="2"/>
<feComposite in2="hardAlpha" operator="arithmetic" k2="-1" k3="1"/>
<feColorMatrix type="matrix" values="0 0 0 0 1 0 0 0 0 1 0 0 0 0 1 0 0 0 0.06 0"/>
<feBlend mode="normal" in2="effect1_innerShadow_36_299" result="effect2_innerShadow_36_299"/>
</filter>
<filter id="filter4_ii_36_299" x="-16.9016" y="42.0986" width="37.4009" height="43.4009" filterUnits="userSpaceOnUse" color-interpolation-filters="sRGB">
<feFlood flood-opacity="0" result="BackgroundImageFix"/>
<feBlend mode="normal" in="SourceGraphic" in2="BackgroundImageFix" result="shape"/>
<feColorMatrix in="SourceAlpha" type="matrix" values="0 0 0 0 0 0 0 0 0 0 0 0 0 0 0 0 0 0 127 0" result="hardAlpha"/>
<feOffset dy="-4"/>
<feGaussianBlur stdDeviation="2"/>
<feComposite in2="hardAlpha" operator="arithmetic" k2="-1" k3="1"/>
<feColorMatrix type="matrix" values="0 0 0 0 0 0 0 0 0 0 0 0 0 0 0 0 0 0 0.6 0"/>
<feBlend mode="normal" in2="shape" result="effect1_innerShadow_36_299"/>
<feColorMatrix in="SourceAlpha" type="matrix" values="0 0 0 0 0 0 0 0 0 0 0 0 0 0 0 0 0 0 127 0" result="hardAlpha"/>
<feOffset dy="2"/>
<feGaussianBlur stdDeviation="2"/>
<feComposite in2="hardAlpha" operator="arithmetic" k2="-1" k3="1"/>
<feColorMatrix type="matrix" values="0 0 0 0 1 0 0 0 0 1 0 0 0 0 1 0 0 0 0.06 0"/>
<feBlend mode="normal" in2="effect1_innerShadow_36_299" result="effect2_innerShadow_36_299"/>
</filter>
<filter id="filter5_ii_36_299" x="-16.9016" y="115.099" width="37.4009" height="43.4009" filterUnits="userSpaceOnUse" color-interpolation-filters="sRGB">
<feFlood flood-opacity="0" result="BackgroundImageFix"/>
<feBlend mode="normal" in="SourceGraphic" in2="BackgroundImageFix" result="shape"/>
<feColorMatrix in="SourceAlpha" type="matrix" values="0 0 0 0 0 0 0 0 0 0 0 0 0 0 0 0 0 0 127 0" result="hardAlpha"/>
<feOffset dy="-4"/>
<feGaussianBlur stdDeviation="2"/>
<feComposite in2="hardAlpha" operator="arithmetic" k2="-1" k3="1"/>
<feColorMatrix type="matrix" values="0 0 0 0 0 0 0 0 0 0 0 0 0 0 0 0 0 0 0.6 0"/>
<feBlend mode="normal" in2="shape" result="effect1_innerShadow_36_299"/>
<feColorMatrix in="SourceAlpha" type="matrix" values="0 0 0 0 0 0 0 0 0 0 0 0 0 0 0 0 0 0 127 0" result="hardAlpha"/>
<feOffset dy="2"/>
<feGaussianBlur stdDeviation="2"/>
<feComposite in2="hardAlpha" operator="arithmetic" k2="-1" k3="1"/>
<feColorMatrix type="matrix" values="0 0 0 0 1 0 0 0 0 1 0 0 0 0 1 0 0 0 0.06 0"/>
<feBlend mode="normal" in2="effect1_innerShadow_36_299" result="effect2_innerShadow_36_299"/>
</filter>
<filter id="filter6_ii_36_299" x="55.0984" y="115.099" width="37.4009" height="43.4009" filterUnits="userSpaceOnUse" color-interpolation-filters="sRGB">
<feFlood flood-opacity="0" result="BackgroundImageFix"/>
<feBlend mode="normal" in="SourceGraphic" in2="BackgroundImageFix" result="shape"/>
<feColorMatrix in="SourceAlpha" type="matrix" values="0 0 0 0 0 0 0 0 0 0 0 0 0 0 0 0 0 0 127 0" result="hardAlpha"/>
<feOffset dy="-4"/>
<feGaussianBlur stdDeviation="2"/>
<feComposite in2="hardAlpha" operator="arithmetic" k2="-1" k3="1"/>
<feColorMatrix type="matrix" values="0 0 0 0 0 0 0 0 0 0 0 0 0 0 0 0 0 0 0.6 0"/>
<feBlend mode="normal" in2="shape" result="effect1_innerShadow_36_299"/>
<feColorMatrix in="SourceAlpha" type="matrix" values="0 0 0 0 0 0 0 0 0 0 0 0 0 0 0 0 0 0 127 0" result="hardAlpha"/>
<feOffset dy="2"/>
<feGaussianBlur stdDeviation="2"/>
<feComposite in2="hardAlpha" operator="arithmetic" k2="-1" k3="1"/>
<feColorMatrix type="matrix" values="0 0 0 0 1 0 0 0 0 1 0 0 0 0 1 0 0 0 0.06 0"/>
<feBlend mode="normal" in2="effect1_innerShadow_36_299" result="effect2_innerShadow_36_299"/>
</filter>
<filter id="filter7_ii_36_299" x="128.098" y="115.099" width="37.4009" height="43.4009" filterUnits="userSpaceOnUse" color-interpolation-filters="sRGB">
<feFlood flood-opacity="0" result="BackgroundImageFix"/>
<feBlend mode="normal" in="SourceGraphic" in2="BackgroundImageFix" result="shape"/>
<feColorMatrix in="SourceAlpha" type="matrix" values="0 0 0 0 0 0 0 0 0 0 0 0 0 0 0 0 0 0 127 0" result="hardAlpha"/>
<feOffset dy="-4"/>
<feGaussianBlur stdDeviation="2"/>
<feComposite in2="hardAlpha" operator="arithmetic" k2="-1" k3="1"/>
<feColorMatrix type="matrix" values="0 0 0 0 0 0 0 0 0 0 0 0 0 0 0 0 0 0 0.6 0"/>
<feBlend mode="normal" in2="shape" result="effect1_innerShadow_36_299"/>
<feColorMatrix in="SourceAlpha" type="matrix" values="0 0 0 0 0 0 0 0 0 0 0 0 0 0 0 0 0 0 127 0" result="hardAlpha"/>
<feOffset dy="2"/>
<feGaussianBlur stdDeviation="2"/>
<feComposite in2="hardAlpha" operator="arithmetic" k2="-1" k3="1"/>
<feColorMatrix type="matrix" values="0 0 0 0 1 0 0 0 0 1 0 0 0 0 1 0 0 0 0.06 0"/>
<feBlend mode="normal" in2="effect1_innerShadow_36_299" result="effect2_innerShadow_36_299"/>
</filter>
<filter id="filter8_ii_36_299" x="128.098" y="42.0986" width="37.4009" height="43.4009" filterUnits="userSpaceOnUse" color-interpolation-filters="sRGB">
<feFlood flood-opacity="0" result="BackgroundImageFix"/>
<feBlend mode="normal" in="SourceGraphic" in2="BackgroundImageFix" result="shape"/>
<feColorMatrix in="SourceAlpha" type="matrix" values="0 0 0 0 0 0 0 0 0 0 0 0 0 0 0 0 0 0 127 0" result="hardAlpha"/>
<feOffset dy="-4"/>
<feGaussianBlur stdDeviation="2"/>
<feComposite in2="hardAlpha" operator="arithmetic" k2="-1" k3="1"/>
<feColorMatrix type="matrix" values="0 0 0 0 0 0 0 0 0 0 0 0 0 0 0 0 0 0 0.6 0"/>
<feBlend mode="normal" in2="shape" result="effect1_innerShadow_36_299"/>
<feColorMatrix in="SourceAlpha" type="matrix" values="0 0 0 0 0 0 0 0 0 0 0 0 0 0 0 0 0 0 127 0" result="hardAlpha"/>
<feOffset dy="2"/>
<feGaussianBlur stdDeviation="2"/>
<feComposite in2="hardAlpha" operator="arithmetic" k2="-1" k3="1"/>
<feColorMatrix type="matrix" values="0 0 0 0 1 0 0 0 0 1 0 0 0 0 1 0 0 0 0.06 0"/>
<feBlend mode="normal" in2="effect1_innerShadow_36_299" result="effect2_innerShadow_36_299"/>
</filter>
<filter id="filter9_ii_36_299" x="128.098" y="-29.9014" width="37.4009" height="43.4009" filterUnits="userSpaceOnUse" color-interpolation-filters="sRGB">
<feFlood flood-opacity="0" result="BackgroundImageFix"/>
<feBlend mode="normal" in="SourceGraphic" in2="BackgroundImageFix" result="shape"/>
<feColorMatrix in="SourceAlpha" type="matrix" values="0 0 0 0 0 0 0 0 0 0 0 0 0 0 0 0 0 0 127 0" result="hardAlpha"/>
<feOffset dy="-4"/>
<feGaussianBlur stdDeviation="2"/>
<feComposite in2="hardAlpha" operator="arithmetic" k2="-1" k3="1"/>
<feColorMatrix type="matrix" values="0 0 0 0 0 0 0 0 0 0 0 0 0 0 0 0 0 0 0.6 0"/>
<feBlend mode="normal" in2="shape" result="effect1_innerShadow_36_299"/>
<feColorMatrix in="SourceAlpha" type="matrix" values="0 0 0 0 0 0 0 0 0 0 0 0 0 0 0 0 0 0 127 0" result="hardAlpha"/>
<feOffset dy="2"/>
<feGaussianBlur stdDeviation="2"/>
<feComposite in2="hardAlpha" operator="arithmetic" k2="-1" k3="1"/>
<feColorMatrix type="matrix" values="0 0 0 0 1 0 0 0 0 1 0 0 0 0 1 0 0 0 0.06 0"/>
<feBlend mode="normal" in2="effect1_innerShadow_36_299" result="effect2_innerShadow_36_299"/>
</filter>
<filter id="filter10_ii_36_299" x="55.0984" y="42.0986" width="37.4009" height="43.4009" filterUnits="userSpaceOnUse" color-interpolation-filters="sRGB">
<feFlood flood-opacity="0" result="BackgroundImageFix"/>
<feBlend mode="normal" in="SourceGraphic" in2="BackgroundImageFix" result="shape"/>
<feColorMatrix in="SourceAlpha" type="matrix" values="0 0 0 0 0 0 0 0 0 0 0 0 0 0 0 0 0 0 127 0" result="hardAlpha"/>
<feOffset dy="-4"/>
<feGaussianBlur stdDeviation="2"/>
<feComposite in2="hardAlpha" operator="arithmetic" k2="-1" k3="1"/>
<feColorMatrix type="matrix" values="0 0 0 0 0 0 0 0 0 0 0 0 0 0 0 0 0 0 0.6 0"/>
<feBlend mode="normal" in2="shape" result="effect1_innerShadow_36_299"/>
<feColorMatrix in="SourceAlpha" type="matrix" values="0 0 0 0 0 0 0 0 0 0 0 0 0 0 0 0 0 0 127 0" result="hardAlpha"/>
<feOffset dy="2"/>
<feGaussianBlur stdDeviation="2"/>
<feComposite in2="hardAlpha" operator="arithmetic" k2="-1" k3="1"/>
<feColorMatrix type="matrix" values="0 0 0 0 1 0 0 0 0 1 0 0 0 0 1 0 0 0 0.06 0"/>
<feBlend mode="normal" in2="effect1_innerShadow_36_299" result="effect2_innerShadow_36_299"/>
</filter>
<filter id="filter11_ii_36_299" x="-16.9016" y="-29.9014" width="37.4009" height="43.4009" filterUnits="userSpaceOnUse" color-interpolation-filters="sRGB">
<feFlood flood-opacity="0" result="BackgroundImageFix"/>
<feBlend mode="normal" in="SourceGraphic" in2="BackgroundImageFix" result="shape"/>
<feColorMatrix in="SourceAlpha" type="matrix" values="0 0 0 0 0 0 0 0 0 0 0 0 0 0 0 0 0 0 127 0" result="hardAlpha"/>
<feOffset dy="-4"/>
<feGaussianBlur stdDeviation="2"/>
<feComposite in2="hardAlpha" operator="arithmetic" k2="-1" k3="1"/>
<feColorMatrix type="matrix" values="0 0 0 0 0 0 0 0 0 0 0 0 0 0 0 0 0 0 0.6 0"/>
<feBlend mode="normal" in2="shape" result="effect1_innerShadow_36_299"/>
<feColorMatrix in="SourceAlpha" type="matrix" values="0 0 0 0 0 0 0 0 0 0 0 0 0 0 0 0 0 0 127 0" result="hardAlpha"/>
<feOffset dy="2"/>
<feGaussianBlur stdDeviation="2"/>
<feComposite in2="hardAlpha" operator="arithmetic" k2="-1" k3="1"/>
<feColorMatrix type="matrix" values="0 0 0 0 1 0 0 0 0 1 0 0 0 0 1 0 0 0 0.06 0"/>
<feBlend mode="normal" in2="effect1_innerShadow_36_299" result="effect2_innerShadow_36_299"/>
</filter>
<filter id="filter12_ii_36_299" x="55.0984" y="-29.9014" width="37.4009" height="43.4009" filterUnits="userSpaceOnUse" color-interpolation-filters="sRGB">
<feFlood flood-opacity="0" result="BackgroundImageFix"/>
<feBlend mode="normal" in="SourceGraphic" in2="BackgroundImageFix" result="shape"/>
<feColorMatrix in="SourceAlpha" type="matrix" values="0 0 0 0 0 0 0 0 0 0 0 0 0 0 0 0 0 0 127 0" result="hardAlpha"/>
<feOffset dy="-4"/>
<feGaussianBlur stdDeviation="2"/>
<feComposite in2="hardAlpha" operator="arithmetic" k2="-1" k3="1"/>
<feColorMatrix type="matrix" values="0 0 0 0 0 0 0 0 0 0 0 0 0 0 0 0 0 0 0.6 0"/>
<feBlend mode="normal" in2="shape" result="effect1_innerShadow_36_299"/>
<feColorMatrix in="SourceAlpha" type="matrix" values="0 0 0 0 0 0 0 0 0 0 0 0 0 0 0 0 0 0 127 0" result="hardAlpha"/>
<feOffset dy="2"/>
<feGaussianBlur stdDeviation="2"/>
<feComposite in2="hardAlpha" operator="arithmetic" k2="-1" k3="1"/>
<feColorMatrix type="matrix" values="0 0 0 0 1 0 0 0 0 1 0 0 0 0 1 0 0 0 0.06 0"/>
<feBlend mode="normal" in2="effect1_innerShadow_36_299" result="effect2_innerShadow_36_299"/>
</filter>
<clipPath id="clip0_36_299">
<rect width="145" height="145" fill="white"/>
</clipPath>
</defs>
</svg>
