<svg width="2560" height="354" viewBox="0 0 2560 354" fill="none" xmlns="http://www.w3.org/2000/svg">
<path d="M2560 353.76V216.408C2558.8 215.546 2557.41 215.099 2556 214.944C2555.87 214.597 2555.62 213.902 2555.49 213.555C2555.92 213.499 2556.8 213.375 2557.23 213.313C2556.98 211.868 2556.83 210.417 2556.78 208.953C2555.83 208.661 2554.72 208.506 2554.31 207.508C2552.9 203.099 2553.32 198.379 2554.19 193.902C2553.02 192.271 2551.52 190.938 2550.12 189.542C2546.61 189.895 2542.89 190.168 2539.51 189.021C2538.02 186.677 2538.95 183.396 2537.01 181.393C2533.76 180.835 2530.51 180.407 2527.29 179.768C2524.56 177.238 2524.51 172.959 2525.18 169.548C2524.1 166.317 2524.98 162.931 2524.33 159.644C2524.93 156.512 2523.55 153.517 2523.89 150.397C2523.99 148.183 2523.19 146.019 2522.24 144.059C2515.57 141.578 2508.23 142.087 2501.43 140.164C2498.38 139.395 2498.16 132.022 2500.41 130.75C2500.37 130.428 2500.29 129.776 2500.25 129.454C2498.16 129.194 2495.79 129.33 2494.36 127.525C2494.4 126.092 2494.42 124.66 2494.41 123.227C2492.9 122.384 2491.84 120.281 2490.11 120.219C2486.97 123.208 2482.47 123.438 2478.38 123.363C2478.26 124.151 2478.19 124.938 2478.16 125.732C2479.15 126.371 2480.15 127.041 2481.12 127.766C2478.45 128.895 2475.58 129.285 2472.72 129.186C2473.17 130.383 2474.08 131.313 2474.75 132.398C2475.16 134.742 2475.3 137.297 2474.08 139.437C2466.2 140.466 2458.21 140.355 2450.31 141.167C2450.15 143.359 2451.59 177.806 2451.63 178.426C2450.6 178.947 2449.52 179.387 2448.46 179.747C2446.38 178.494 2443.87 178.277 2441.9 176.826C2439.74 182.481 2442.69 187.336 2439.68 189.446C2436.51 190.141 2432.97 188.683 2430.12 190.606C2429.36 186.767 2429.22 182.854 2428.96 178.96C2427.77 178.848 2426.6 178.762 2425.46 178.693C2424.93 177.936 2424.43 177.186 2423.96 176.423C2422.47 178.916 2419.21 178.308 2416.77 178.656C2414.96 179.158 2414.49 177.199 2413.82 176.014C2413.56 175.946 2413.04 175.816 2412.78 175.747C2412.83 176.876 2412.43 177.874 2411.65 178.662C2410.83 178.681 2410.05 178.705 2409.29 178.743C2408.62 177.093 2408.62 175.332 2409.3 173.689C2410.31 173.639 2411.35 173.59 2412.41 173.546C2410.75 168.399 2411.22 162.929 2410.71 157.614C2408.81 156.51 2406.78 155.685 2404.9 154.606C2402.88 156.02 2400.63 157.031 2398.53 158.271C2397.69 158.755 2398.68 159.766 2398.83 160.398C2395.47 165.708 2395.13 164.846 2385.28 165.241C2384.92 163.542 2384.49 161.861 2383.92 160.23C2383.47 160.273 2382.58 160.36 2382.14 160.41C2381.75 161.805 2381.57 163.25 2381.67 164.701C2380.62 165.185 2379.61 165.656 2378.6 166.115C2378.76 170.791 2379.37 175.479 2379.01 180.155C2374.59 179.857 2370.18 180.056 2365.77 180.136C2365.19 178.102 2365.19 175.386 2363.04 174.319C2359.84 173.228 2356.61 174.821 2353.5 175.435C2353.08 174.902 2352.69 174.368 2352.33 173.841C2350.83 173.32 2349.37 172.694 2347.94 172.049C2346.27 172.768 2344.61 173.475 2342.95 174.164C2342.99 176.384 2343.01 178.604 2342.87 180.824C2339.97 179.224 2336.74 180.105 2333.65 179.956C2332.34 179.249 2332.12 177.475 2330.96 176.669C2329.53 176.21 2328.03 176.136 2326.6 175.937C2324.36 184.173 2325.18 182.366 2315.13 183.459C2314.95 185.363 2315.28 187.366 2314.76 189.214C2313.89 190.839 2312.43 189.171 2311.31 188.786C2309.39 187.539 2307.51 189.35 2305.7 189.884C2302.61 191.118 2302.68 187.934 2298.22 192.445C2298.21 211.957 2300.63 214.533 2296.67 215.05C2296.7 214.194 2296.77 213.345 2296.87 212.495C2295.99 211.342 2294.41 210.312 2294.74 208.662C2294.94 207.363 2294.74 196.021 2294.06 192.488C2293.23 189.362 2296.01 186.367 2294.48 183.291C2293.08 182.131 2291.12 182.051 2289.45 181.542C2290.66 181.375 2291.9 181.213 2293.16 181.058C2293.29 180.661 2293.56 179.867 2293.69 179.47C2293.18 179.408 2292.16 179.278 2291.64 179.216C2289.08 177.746 2288.65 174.751 2287.92 172.177C2286.99 172.344 2286.56 173.306 2285.93 173.87C2285 173.473 2284.11 173.082 2283.23 172.704C2282.29 170.093 2282.5 167.296 2282.08 164.605C2281.81 162.875 2280.07 162.149 2278.79 161.306C2278.64 160.835 2278.36 159.886 2278.21 159.415C2277.17 160.469 2276.17 161.554 2275.18 162.621C2273.48 161.957 2271.68 161.703 2269.89 161.809C2269.02 158.113 2269.18 154.305 2268.99 150.547C2267.91 150.342 2266.89 150.138 2265.87 149.927C2264.97 152.885 2265.59 155.992 2265.48 159.018C2265.64 160.63 2263.87 161.325 2262.93 162.292C2262.42 161.17 2261.94 160.047 2261.46 158.931C2259.98 159.409 2259.13 160.736 2258.27 161.914C2256.92 161.734 2255.56 161.554 2254.25 161.399C2253.92 160.723 2253.62 160.053 2253.35 159.39C2250.96 158.555 2251.18 152.749 2251.33 150.243C2249.12 150.057 2247.16 149.009 2245.05 148.55C2240.52 148.544 2235.96 149.524 2231.44 148.854C2230.1 146.361 2231.11 143 2229.51 140.445C2224.7 140.297 2225.57 141.899 2224.49 131.118C2223.95 130.82 2223.45 130.498 2222.99 130.157C2222.02 125.878 2222.65 121.326 2221.46 117.09C2220.59 117.084 2219.75 117.078 2218.93 117.065C2218.59 116.29 2218.26 115.508 2218 114.733C2215.83 114.435 2213.66 114.169 2211.5 114.076C2209.17 115.862 2206.13 115.223 2203.42 115.397C2201.32 115.254 2198.48 115.298 2197.5 113.04C2194.28 115.347 2190.08 113.945 2186.44 114.714C2185.87 115.192 2185.64 116.314 2184.79 116.202C2182.23 116.128 2179.75 116.649 2177.3 117.219C2175.9 121.027 2177.3 125.095 2177.11 129.014C2176.68 129.926 2175.61 130.254 2174.89 130.819C2175.03 134.062 2176.42 137.808 2174.38 140.698C2173.22 140.704 2172.1 140.723 2170.98 140.748C2170.38 141.48 2169.8 142.212 2169.24 142.95C2168.05 143.136 2166.54 142.615 2165.71 143.682C2165.26 147.682 2165.95 151.701 2165.93 155.713C2167.36 155.967 2168.8 156.24 2170.26 156.532C2170.15 157.537 2170.07 158.541 2169.99 159.546C2167.27 159.862 2164.95 158.244 2162.42 157.766C2160.46 158.752 2159.26 160.842 2157.42 162.064C2157.53 162.963 2157.67 163.862 2157.84 164.762C2154.77 167.069 2143.73 165.772 2136.3 167.156C2136.3 168.675 2137.08 169.971 2137.59 171.361C2137.95 176.064 2137.87 196.586 2138.38 197.532C2137.16 197.848 2135.94 198.152 2134.76 198.456C2134.24 202.103 2132.52 205.538 2132.66 209.284C2129.97 210.481 2126.81 209.972 2124.64 208.025C2123.08 209.067 2121.41 209.898 2119.71 210.623C2119.66 211.814 2119.64 213.004 2119.66 214.201C2119.08 214.635 2118.52 215.075 2117.99 215.516C2116.63 213.029 2113.72 211.752 2110.99 211.783C2109.5 212.242 2108.17 213.061 2106.81 213.755C2106.29 214.53 2105.78 215.305 2105.3 216.087C2092.56 215.851 2079.87 217.861 2067.13 217.24C2066.1 216.434 2066.58 214.766 2065.48 214.021C2065.12 215.131 2064.83 216.254 2064.52 217.376C2063.3 217.376 2062.09 217.438 2060.92 217.302C2058.81 214.499 2059.81 210.828 2059.46 207.603C2058.79 206.586 2057.5 206.778 2056.51 206.567C2056.42 203.845 2056.47 201.116 2056.02 198.424C2054.95 198.697 2054.09 199.28 2053.31 199.987C2052.34 196.309 2052.34 192.347 2053.72 188.775C2052.67 187.411 2052.51 185.718 2052.54 184.062C2049.37 183.256 2046.1 183.262 2042.88 183.429C2042.23 183.876 2041.57 184.322 2040.97 184.769C2040.96 182.797 2040.99 180.806 2040.54 178.884C2036.25 179.231 2032.29 177.017 2027.99 177.544C2028.05 173.563 2027.22 169.631 2027.42 165.649C2024.11 166.437 2020.71 166.412 2017.34 166.486C2015.58 166.43 2014.15 168.123 2012.37 167.429C2012.36 168.272 2012.36 169.122 2012.4 169.972C2011.81 170.481 2011.28 170.989 2010.74 171.504C2010.49 171.188 2009.98 170.561 2009.73 170.245C2008.54 170.078 2006.38 170.679 2006.25 168.967C2006.25 168.967 2003.53 99.95 2003.1 74.245C2001.13 73.848 1999.16 73.389 1997.17 73.563C1996.79 67.324 1996.32 61.073 1996.29 54.816C1993.27 54.81 1990.25 54.959 1987.26 55.2C1987.06 55.833 1986.92 56.478 1986.82 57.122C1986.27 57.686 1985.74 58.251 1985.24 58.815C1984.7 58.809 1983.64 58.79 1983.12 58.784C1981.65 56.831 1982.27 54.244 1981.09 52.179C1980 46.697 1980.78 40.948 1979.43 35.497C1977.55 36.57 1975.61 38.846 1973.27 37.618C1971.58 37.351 1970.95 35.665 1970.17 34.399C1969.37 34.449 1968.45 35.075 1967.82 34.356C1967.67 30.765 1967.88 27.137 1967.03 23.609C1962.09 23.363 1965.21 12.659 1961.94 9.811C1960.47 6.76 1960.02 3.318 1959.49 0C1959.16 0.149 1958.49 0.439998 1958.15 0.582998C1956.06 8.458 1957.73 7.721 1954.76 11.783C1954.33 23.9 1954.4 22.267 1951.64 24.552C1951.5 29.371 1951.79 34.189 1951.61 39.008C1950.56 38.103 1950.16 36.093 1948.56 36.199C1947.66 37.464 1947.52 39.058 1947.18 40.515C1946.29 40.379 1945.39 40.248 1944.54 40.124C1943.79 39.045 1943.01 38.003 1942.21 36.98C1941.79 36.992 1940.95 37.017 1940.52 37.023C1938.98 40.395 1940.3 51.421 1940.34 57.91C1940.12 58.462 1939.87 59.001 1939.62 59.516C1938.27 59.963 1937.01 60.545 1935.83 61.283C1934.7 61.581 1933.6 61.891 1932.52 62.219C1929.95 73.677 1934.61 72.712 1927.96 73.586C1926.66 76.837 1931.8 160.204 1929.69 161.344C1925.94 162.175 1922.06 162.094 1918.25 162.169C1918.1 162.789 1917.39 171.907 1913.22 172.309C1912.02 169.586 1910.3 83.106 1909.56 79.689C1908.29 79.782 1907.05 79.838 1905.81 79.794C1905.86 75.633 1905.63 71.453 1904.23 67.496C1901.33 64.888 1900.61 65.651 1900.73 60.445C1899.53 60.104 1898.02 60.085 1897.31 58.919C1895.89 54.144 1897.17 48.99 1895.67 44.252C1893.88 44.934 1892.13 45.728 1890.48 46.695C1889.54 46.329 1888.6 45.963 1887.69 45.61C1887.16 44.791 1886.64 43.967 1886.17 43.142C1885.43 42.9 1884.72 42.658 1884.03 42.41C1884.05 38.9 1884.02 35.384 1884.01 31.874C1883.52 31.967 1882.52 32.141 1882.02 32.234C1880.29 28.538 1880.13 24.501 1880.24 20.494C1877.15 18.489 1879.97 21.3 1875.97 8.866C1873.17 12.283 1875.31 17.988 1871.65 20.891C1871.53 24.475 1872.08 28.234 1870.67 31.638C1870 32.395 1868.76 32.767 1868.7 33.889C1868.18 38.642 1870.41 45.378 1868.12 47.129C1867.41 46.131 1866.74 45.138 1866.03 44.165C1864.78 45.529 1864.57 47.39 1863.88 49.027C1862.19 49.281 1861.94 46.584 1861.09 45.461C1859.85 45.672 1858.19 45.064 1857.47 46.373C1856.98 53.238 1857.73 60.147 1857.4 67.006C1855.03 67.707 1853 69.195 1850.66 69.946C1849.04 73.431 1849.6 77.239 1849.35 80.941C1848.08 80.922 1846.82 80.904 1845.6 80.885C1845.32 89.718 1848.75 176.492 1848.13 179.409C1846 180.897 1843.38 181.666 1841.68 183.707C1840.15 184.054 1838.61 184.371 1837.11 184.687C1837.04 186.25 1836.98 187.806 1836.92 189.369C1835.66 190.374 1834.3 191.254 1832.73 191.664C1831.57 194.734 1832.52 197.996 1831.73 201.109C1830.79 200.979 1829.88 200.855 1828.98 200.731C1828.69 200.917 1828.1 201.283 1827.81 201.469C1827.81 201.469 1829.14 230.195 1828.82 245.804C1827.11 246.219 1825.43 246.703 1823.78 247.23C1822.42 243.528 1823.8 239.528 1822.87 235.763C1822.28 233.419 1822.98 231.037 1823.1 228.681C1822.1 228.222 1821.06 227.893 1819.98 227.968C1817.12 224.625 1818.87 219.219 1818.14 202.343C1814.81 202.424 1811.28 202.355 1808.32 200.675C1808.39 197.388 1808.42 194.101 1808.26 190.815C1803.55 191.138 1781.92 188.456 1775.62 188.781C1774.37 181.482 1774.33 174.065 1774.2 166.685C1771.89 166.443 1769.77 165.451 1767.51 165.048C1766.35 164.918 1766.46 163.615 1766.39 162.778C1765.94 162.772 1765.03 162.753 1764.58 162.741C1764.46 161.829 1764.35 160.924 1764.26 160.019C1763.94 160.85 1763.66 161.7 1763.33 162.518C1762.43 163.225 1761.57 162.282 1760.82 161.898C1757.68 164.862 1753.48 167.144 1749.04 166.481C1749.32 172.379 1749.77 178.357 1749.23 184.23C1747.53 185.445 1745.28 184.937 1743.35 185.135C1743.28 186.983 1743.41 188.906 1742.66 190.642C1737.11 191.026 1731.58 191.43 1726.02 191.293C1724.67 194.685 1725.59 198.375 1725.23 201.91C1723.41 202.183 1721.57 202.214 1719.79 202.499C1718.76 206.581 1721.22 225.559 1718.87 227.212C1716.66 227.324 1714.48 226.865 1712.3 226.703C1711.32 227.59 1710.27 228.402 1709.39 229.363C1708.75 233.078 1709.83 236.885 1709.11 240.619C1708.74 240.836 1708 241.276 1707.63 241.493C1707.99 241.791 1708.72 242.398 1709.09 242.696C1708.85 243.62 1708.78 244.643 1708.02 245.313C1707.13 246.429 1706.83 247.936 1705.64 248.811C1705.55 250.802 1705.51 252.799 1705.36 254.796C1701.82 256.439 1697.8 254.684 1694.35 256.563C1694.45 258.765 1694.4 260.991 1693.83 263.137C1694.97 265.264 1693.98 267.726 1694.55 270.008C1694.93 271.118 1693.87 271.837 1693.34 272.65C1693.68 273.245 1694.03 273.847 1694.41 274.455C1693.61 274.461 1692.83 274.467 1692.08 274.474C1691.71 273.612 1691.76 272.539 1691.14 271.838C1689.51 271.621 1687.88 271.658 1686.26 271.633C1685.95 270.752 1685.66 269.872 1685.41 268.997C1680.66 268.582 1675.89 268.78 1671.18 268.147C1671.12 263.955 1670.59 259.812 1669.48 255.769C1668.41 255.943 1667.35 256.116 1666.32 256.29C1665.8 254.715 1665.7 253.053 1665.71 251.409C1665.23 250.975 1664.77 250.547 1664.33 250.119C1664.8 249.307 1665.32 248.519 1665.75 247.669C1663.09 244.026 1663.77 241.059 1663.08 235.979C1660.79 227.312 1649.37 226.199 1648.45 225.294C1648.23 223.154 1648.39 220.996 1648.38 218.851C1647.1 219.006 1645.87 219.285 1644.71 219.769C1644.74 221.338 1645.38 223.124 1644.56 224.575C1640.28 224.928 1635.91 224.922 1631.66 224.308C1629.83 223.483 1628.31 222.075 1626.42 221.35C1625.07 221.046 1625.23 219.589 1625.1 218.547C1625.23 216.339 1622.36 216.159 1621.04 214.956C1620.01 215.812 1618.96 216.637 1617.93 217.455C1617.55 220.134 1618.96 221.328 1613.65 223.582C1612.33 222.968 1612.5 221.263 1612.22 220.072C1611.07 219.563 1609.98 218.912 1608.77 218.627C1607.52 219.055 1606.32 219.576 1605.08 219.948C1604.96 218.156 1604.93 216.357 1604.93 214.565C1604.17 214.59 1603.43 214.621 1602.7 214.652C1601.63 213.567 1600.55 212.519 1599.44 211.508C1598.79 200.53 1599.62 202.302 1597.11 198.541C1596.78 199.136 1596.46 199.744 1596.16 200.352C1595.8 200.501 1595.11 200.792 1594.76 200.941C1595.07 214.208 1595 211.379 1592.35 214.888C1591.48 214.789 1590.62 214.683 1589.79 214.584C1588.25 216.631 1589.13 219.365 1588.84 221.728C1586.34 221.933 1583.74 222.447 1581.31 221.666C1579.43 221.052 1577.13 221.561 1575.85 219.737C1571.79 222.53 1573.3 222.376 1567.79 221.585C1567.5 221.331 1566.91 220.822 1566.62 220.568C1559.98 222.271 1566.06 225.092 1547.98 224.227C1547.18 217.393 1547.26 210.497 1547.3 203.619C1547.38 200.729 1546.53 197.907 1546.64 195.017C1547 166.119 1547.36 169.18 1538.02 168.927C1537.92 164.605 1538.02 160.276 1537.96 155.953C1534.86 155.314 1531.57 155.631 1528.66 154.235C1525.65 153.801 1522.6 154.142 1519.58 154.099C1519.48 154.552 1519.28 155.463 1519.18 155.922C1518.22 155.953 1517.26 155.978 1516.33 156.003C1516.28 157.181 1516.29 158.36 1516.13 159.532C1514.34 160.661 1512.06 160.115 1510.07 160.289C1510.33 166.274 1509.63 172.314 1510.74 178.23C1508.53 178.652 1506.3 179.011 1504.07 179.111C1504.16 180.872 1504.24 182.633 1504.38 184.395C1505.19 185.331 1505.24 186.51 1504.56 187.533C1503.06 187.279 1501.55 187.173 1500.08 187.415C1500.25 189.883 1501.17 192.283 1500.91 194.782C1499.87 195.092 1498.87 195.421 1497.87 195.774C1497.36 195.452 1496.86 195.123 1496.39 194.807C1496.03 197.368 1496.55 199.923 1496.6 202.491C1496.16 204.072 1494.01 203.527 1492.79 203.824C1491.8 205.926 1492.08 208.277 1492.09 210.522C1487.64 210.603 1483.11 210.231 1478.77 209.555C1477.97 207.391 1478.74 204.86 1478.36 202.566C1477.39 201.747 1475.96 202.026 1474.82 201.754C1474.6 196.204 1474.79 190.647 1474.71 185.097C1471.6 185.215 1468.54 184.731 1465.47 184.508C1461.31 184.496 1457.2 185.32 1453.04 185.103C1452.96 190.275 1453.04 195.447 1453.14 200.625C1439.01 200.52 1444.06 199.501 1438.13 200.687C1438.11 202.665 1438.25 204.656 1438.04 206.634C1437.09 207.739 1415.21 208.642 1414.59 208.563C1413.27 207.856 1414.31 206.262 1414.53 205.208C1413.48 204.842 1412.96 203.899 1412.44 203.019C1408.71 203.559 1405.1 202.225 1401.39 202.467C1401.09 204.7 1401.56 206.982 1400.99 209.183C1395.03 210.002 1388.95 209.598 1383.05 210.554C1382.6 213.556 1383.74 216.954 1381.67 219.534C1380.3 219.398 1378.95 219.528 1377.93 220.495C1378.47 222.349 1378.56 224.284 1377.93 226.132C1376.8 224.222 1374.81 223.174 1373.07 221.927C1371.8 222.944 1370.51 223.918 1369.21 224.879C1369.17 225.791 1369.16 226.702 1369.15 227.62C1367.51 229.059 1365.91 230.591 1363.77 231.236C1361.76 231.838 1362.58 234.349 1362.35 235.906C1360.65 237.159 1358.54 237.413 1356.54 237.698C1355.91 236.78 1355.28 235.881 1354.64 234.988C1354.51 234.169 1354.4 233.357 1354.3 232.545C1353.08 231.85 1351.93 231.063 1350.66 230.48C1349.21 231.199 1347.83 232.061 1346.56 233.06C1346.07 235.807 1346.48 238.648 1346.3 241.432C1344.57 241.624 1342.83 241.661 1341.17 241.141C1337.42 240.192 1332.77 242.4 1329.65 239.436C1325.39 239.008 1321.09 239.182 1316.82 239.021C1316.31 238.581 1315.8 238.14 1315.32 237.7C1315.01 237.898 1314.38 238.283 1314.07 238.475C1311.93 238.171 1309.81 237.656 1308.01 236.441C1307.74 235.343 1308.32 233.626 1307.05 233.074C1304.98 232.404 1302.81 231.728 1301.25 230.141C1300.92 228.367 1301.08 226.557 1301.09 224.77C1298.94 224.435 1296.77 224.33 1294.63 224.1C1294.64 217.247 1294.12 210.395 1294.51 203.548C1280.22 202.646 1282 202.906 1280.86 200.689C1279.32 202.357 1277.18 203.157 1275.07 203.777C1275.06 209.203 1275.16 214.63 1275.01 220.05C1270.39 218.066 1266.55 214.605 1261.97 212.552C1256.22 212.254 1255.36 214.317 1244.12 221.054C1244.41 221.345 1244.97 221.928 1245.25 222.22C1245.29 227.423 1245.26 232.626 1245.16 237.829C1241.98 238.815 1238.53 238.282 1235.3 239.144C1235.25 237.842 1235.24 236.539 1235.26 235.237C1234.22 234.828 1233.19 234.431 1232.17 234.028C1230.96 234.295 1229.75 234.561 1228.56 234.822C1228.33 235.988 1228.14 237.16 1227.92 238.326C1227.5 238.351 1226.65 238.4 1226.22 238.425C1225.98 237.346 1226 236.192 1225.52 235.2C1223.41 233.668 1220.76 234.071 1218.6 235.243C1218.6 236.874 1218.67 238.524 1218.43 240.148C1215.48 240.874 1212.36 241.494 1209.34 241.395C1208 240.136 1208.41 238.22 1208.52 236.601C1207.45 235.931 1206.37 235.299 1205.3 234.679C1204.33 235.473 1203.06 236.019 1202.39 237.091C1201.94 239.919 1202.1 242.809 1201.88 245.662C1199.07 245.433 1197.35 247.808 1195.04 248.899C1194.86 249.959 1194.72 251.026 1194.55 252.087C1194.05 252.075 1193.06 252.056 1192.56 252.044C1192.54 251.256 1192.53 250.469 1192.53 249.687C1190.35 248.872 1188.65 246.73 1184.79 250.654C1184.03 250.803 1183.29 250.952 1182.57 251.107C1182.55 250.195 1182.56 249.29 1182.58 248.385C1181.24 247.48 1179.95 246.444 1178.43 245.886C1177.03 246.537 1175.82 247.498 1174.6 248.398C1174.64 250.364 1174.52 252.342 1173.92 254.221C1174.96 254.078 1176.02 253.942 1177.09 253.812C1177.25 254.593 1177.8 255.61 1177.01 256.262C1172.57 257.294 1154.84 256.191 1152.95 256.026C1152.99 255.418 1153.05 254.817 1153.13 254.215C1153.36 254.004 1153.83 253.576 1154.06 253.359C1153.82 251.319 1153.83 249.266 1153.76 247.219C1152.97 246.066 1151.58 245.427 1150.51 244.54C1149.49 245.303 1148.5 246.084 1147.56 246.94C1147.22 246.996 1146.53 247.107 1146.19 247.169C1145.71 248.248 1145.25 249.333 1144.79 250.419C1143.17 249.873 1141.83 248.813 1140.57 247.696C1137.73 249.922 1135.41 252.93 1131.87 254.071C1131.66 254.673 1131.48 255.274 1131.3 255.876C1129.5 254.983 1127.63 255.857 1125.85 256.273C1125.57 254.543 1125.42 252.794 1125.43 251.045C1123.81 250.766 1122.17 250.698 1120.64 251.312C1120.68 253.185 1120.65 255.083 1120.1 256.887C1117.49 257.216 1114.82 257.234 1112.36 256.223C1112.47 255.845 1112.7 255.088 1112.82 254.71C1112 252.943 1111.43 251.076 1111.18 249.147C1110.32 248.446 1109.49 247.739 1108.66 247.032C1106.72 248.055 1104.87 249.531 1102.55 249.376C1102.22 249.084 1101.59 248.502 1101.26 248.21C1100.25 248.836 1099.17 249.376 1098.32 250.207C1097.83 251.298 1097.91 252.539 1097.75 253.711C1096.26 254.145 1094.82 254.666 1093.4 255.237C1093.31 256.049 1093.24 256.862 1093.18 257.68C1091.58 257.965 1089.96 258.17 1088.36 258.319C1087.67 257.321 1086.95 256.347 1086.18 255.423C1085.96 252.638 1085.98 249.842 1086.08 247.057C1084.17 246.828 1082.25 246.772 1080.35 246.958C1080.34 250.84 1080 254.716 1080.08 258.605C1051.74 260.917 1063.02 257.262 1055.88 262.611C1056.22 263.647 1056.58 264.676 1056.95 265.712C1055.72 265.662 1054.51 265.625 1053.3 265.582C1053.12 264.478 1052.93 263.374 1052.68 262.295C1053.21 258.99 1053.3 255.498 1052.52 252.236C1052.7 252.019 1053.04 251.591 1053.22 251.374C1052.93 248.447 1052.81 245.495 1053.18 242.574C1051.48 240.756 1052.24 239.314 1052 229.662C1051.67 229.488 1051.01 229.141 1050.68 228.961C1050.45 228.49 1050.24 228.018 1050.05 227.553C1050.8 226.536 1051.15 225.333 1051.32 224.099C1050.44 223.194 1049.57 222.282 1048.71 221.389C1048.67 220.527 1048.66 219.671 1048.65 218.815C1048.16 218.313 1047.69 217.817 1047.22 217.32C1046.05 217.308 1044.89 217.308 1043.75 217.308C1043.51 217.593 1043.03 218.164 1042.79 218.449C1038.17 216.669 1033.18 217.754 1028.38 217.754C1028.47 219.348 1029.11 221.19 1027.89 222.529C1027.22 224.11 1025.4 223.695 1024.04 223.825C1023.85 224.054 1023.49 224.513 1023.3 224.743C1023.28 226.393 1023.2 228.042 1023.07 229.686C1020.4 229.649 1017.98 228.086 1015.28 228.377C1012.21 228.637 1009.09 227.639 1006.09 228.631C1003.8 229.344 1001.45 229.772 999.073 229.884C998.651 229.375 998.248 228.879 997.851 228.383C997.404 223.223 997.901 218.033 997.479 212.873C994.757 212.575 992.053 212.048 989.312 212.253C988.506 211.763 987.65 211.366 986.782 211.05C986.342 211.478 985.914 211.906 985.498 212.334C983.482 211.776 980.686 213.376 979.402 211.249C979.098 211.237 978.49 211.218 978.186 211.212C977.801 217.178 978.112 223.169 977.888 229.141C976.958 230.933 974.378 230.679 972.641 230.834C972.126 229.891 971.612 228.943 971.115 228.006C970.507 228.49 970.005 229.06 969.614 229.724C967.059 230.233 964.324 229.743 961.924 230.915C962.829 234.555 961.912 238.338 962.017 242.047C960.752 242.301 959.474 242.512 958.271 242.934C957.986 243.957 957.831 245.018 957.632 246.066C956.181 245.254 954.692 244.503 953.124 243.982C951.729 241.811 953.446 239.064 951.555 237.16C951.94 236.571 952.336 235.988 952.752 235.405C952.74 232.044 952.206 228.664 952.864 225.327C952.207 224.663 951.469 224.118 950.836 223.46C950.799 222.338 951.041 221.234 951.196 220.13C950.092 219.225 948.728 218.338 948.895 216.707C948.994 215.274 947.748 214.481 947.016 213.445C947.239 210.605 946.737 207.727 947.537 204.943C946.768 204.267 946.011 203.585 945.267 202.903C945.366 200.298 945.261 197.669 945.757 195.089C944.709 194.884 943.357 195.287 942.607 194.363C942.092 191.082 941.609 187.771 941.807 184.447C941.119 183.69 940.43 182.934 939.754 182.183C938.997 183.057 938.414 184.261 937.211 184.583C935.487 185.005 933.645 184.812 932.039 185.631C932.175 187.665 932.163 189.705 932.058 191.74C931.55 191.777 930.539 191.864 930.03 191.907C930.861 192.589 931.667 193.327 932.318 194.202C929.899 195.256 926.774 194.016 924.721 195.666C924.609 198.047 924.721 200.441 924.523 202.823C921.875 202.699 919.58 204.063 917.304 205.198C917.341 206.668 917.856 208.038 918.675 209.26C917.763 209.911 916.858 210.569 915.965 211.232C915.977 211.61 915.99 212.361 915.996 212.739C916.647 213.086 917.304 213.44 917.974 213.793C917.67 214.314 917.379 214.829 917.1 215.35C916.653 215.338 915.761 215.307 915.314 215.288C914.644 215.641 913.987 215.995 913.336 216.348C913.677 217.384 914.055 218.413 914.477 219.436C913.708 219.957 912.964 220.484 912.213 221.017C912.287 222.071 912.374 223.132 912.467 224.192C911.624 225.073 910.061 225.798 910.532 227.262C911.022 233.867 910.11 240.527 910.886 247.101C910.557 247.548 910.241 248 909.931 248.453C910.148 251.672 910.191 254.927 909.695 258.127C908.374 258.239 907.072 258.369 905.776 258.518C905.689 259.672 905.609 260.825 905.534 261.985C904.095 261.867 902.675 261.774 901.255 261.706C899.86 255.715 901.435 249.483 900.511 243.418C900.12 243.759 899.333 244.441 898.942 244.782C897.968 243.889 897.168 242.835 896.368 241.805C896.287 242.394 896.12 243.56 896.039 244.149C893.231 243.386 890.21 244.31 887.518 243.206C886.278 243.522 885.045 243.851 883.823 244.186C883.482 243.981 882.8 243.572 882.459 243.367C881.808 243.764 881.163 244.167 880.543 244.576C879.929 244.278 879.327 243.981 878.738 243.683C878.391 244.793 877.783 245.878 877.82 247.075C878.136 251.391 877.677 255.708 877.752 260.03C876.257 260.309 874.763 260.57 873.268 260.793C873.132 262.145 872.989 263.509 872.84 264.867C871.569 264.991 870.297 265.003 869.045 264.923C868.896 263.323 868.791 261.723 868.698 260.123C867.135 259.801 865.529 259.323 863.935 259.67C862.98 261.251 863.315 263.192 863.178 264.948C860.325 265.506 857.373 265.109 854.57 265.922C853.317 266.213 852.04 266.387 850.781 266.579C850.489 266.87 849.907 267.46 849.615 267.757C849.02 266.697 848.815 265.487 848.461 264.346C846.241 264.309 844.002 264.414 841.813 264.073C841.019 263.366 841.292 262.256 841.242 261.338C841.195 250.408 842.627 252.039 837.8 250.113C834.171 249.249 833.582 247.079 824.448 251.248C823.083 251.803 823.681 257.441 823.493 263.651C822.451 263.694 821.409 263.732 820.386 263.781C819.535 261.551 817.257 248.651 817.322 247.08C817.285 246.181 817.489 245.114 816.553 244.606C814.513 244.649 812.665 245.635 810.829 246.398C809.527 243.198 810.854 239.663 809.514 236.488C808.739 236.823 808.057 237.189 807.306 237.542C807.3 233.79 807.312 229.989 806.425 226.323C799.661 225.938 802.912 227.366 794.512 227.911C794.252 228.748 794.01 229.592 793.768 230.429C789.694 227.828 790.255 226.45 785.7 228.407C785.39 229.529 784.881 231.309 783.331 230.776C781.644 230.714 781.601 228.866 781.247 227.644H779.368C779.244 228.593 779.157 229.548 779.058 230.503C777.973 230.652 776.881 230.801 775.815 230.956C772.578 219.726 774.457 216.839 773.192 211.198C771.573 208.351 768.119 207.334 765.899 205.04C765.595 203.508 766.6 201.071 764.801 200.302C764.596 201.859 764.745 203.508 764.181 204.997C762.792 206.721 760.615 207.912 758.395 207.112C758.252 204.675 755.97 203.416 755.102 201.301C753.397 201.09 751.511 200.681 750.538 199.106C750.191 197.351 750.433 195.503 749.819 193.804C747.655 194.468 749.261 197.978 748.008 199.478C745.8 201.537 742.941 202.678 740.566 204.495C739.611 206.076 739.958 208.117 739.797 209.897C739.592 210.213 739.195 210.846 738.997 211.156C740.337 216.973 737.44 222.449 737.236 228.198C735.686 227.547 734.179 226.821 732.721 226.021C731.369 226.771 730.023 227.516 728.721 228.347C727.996 227.454 727.344 226.505 726.514 225.724C724.827 225.178 722.998 225.358 721.336 225.873C721.479 227.157 721.603 228.44 721.733 229.73C719.978 229.321 718.186 229.085 716.393 228.992C716.306 225.066 714.669 221.29 715.085 217.339C715.525 214.244 714.397 211.218 714.384 208.13C711.965 206.332 709.491 204.62 707.035 202.89C706.564 200.974 706.638 198.989 706.309 197.061C706.024 196.956 705.465 196.757 705.18 196.652C704.588 201.981 705.406 205.075 699.921 203.641C699.859 205.861 698.116 207.108 696.405 208.149C696.337 210.313 696.734 212.645 695.438 214.555C696.12 217.544 695.847 220.639 694.874 223.535C692.816 229.835 695.042 237.261 693.063 239.969C692.654 238.964 692.269 237.96 691.879 236.961C688.679 240.353 690.757 245.408 689.634 249.519C686.093 249.463 682.577 249.903 679.048 250.034C679.036 261.532 678.13 273.011 678.285 284.508C675.693 283.615 677.169 280.44 676.995 278.437C675.649 278.257 674.303 278.139 672.964 278.046C672.865 276.539 672.766 275.038 672.654 273.537C669.293 273.382 665.931 273.512 662.57 273.45C662.533 276.179 662.421 278.901 662.291 281.624C658.645 282.322 651.299 281.622 650.068 281.314C650.062 277.922 649.783 274.523 649.442 271.15C645.969 270.226 642.273 270.784 638.726 270.927C638.701 274.381 637.641 277.755 637.907 281.215H636.14C636.041 280.88 635.836 280.204 635.737 279.869C631.973 279.081 628.153 279.596 624.357 279.726C623.576 280.433 622.689 281.016 621.715 281.4C621.213 279.62 620.239 278.026 618.571 277.152C618.379 274.895 618.385 272.631 618.428 270.374C616.202 270.331 613.882 270.572 611.885 269.407C610.273 269.804 608.691 270.306 607.054 270.529C607.104 273.158 606.961 275.807 606.26 278.355C603.382 278.101 600.437 277.871 598.105 275.974C598.111 273.754 598.13 271.54 598.179 269.32C597.484 269.072 596.796 268.824 596.114 268.576C595.978 268.229 595.698 267.54 595.562 267.193C594.88 267.106 594.204 267.026 593.54 266.945C593.298 267.54 593.063 268.142 592.833 268.75C590.303 268.335 587.76 268.694 585.267 269.097C585.478 271.683 585.422 274.281 585.323 276.874C584.176 276.855 583.041 276.849 581.906 276.837C582.185 269.439 582.024 262.04 582.055 254.642C578.781 255.144 575.55 256.019 572.225 256.087C573.008 250.411 573.156 229.436 572.833 228.254C570.236 228.167 567.636 228.062 565.038 228.012C563.519 224.53 564.482 225.165 556.338 225.165C556.276 225.674 556.152 226.697 556.09 227.212C555.129 227.206 554.174 227.2 553.225 227.206C548.335 229.717 542.698 227.357 542.732 229.718C542.279 233.147 543.061 236.67 542.186 240.056C544.437 240.428 544.623 243.938 542.124 244.013C542.372 245.377 542.217 246.748 541.919 248.094C540.859 248.075 539.798 248.057 538.756 248.051C538.868 250.519 539.085 253.056 538.31 255.449C537.498 254.748 536.983 253.806 537.125 252.714C537.292 247.052 537.131 241.359 537.999 235.753C537.118 235.3 536.176 235.034 535.258 234.724C535.165 233.608 535.221 232.454 534.917 231.369C533.534 230.805 532.114 230.34 530.793 229.651C528.126 230.265 525.193 230.91 522.756 229.267C522.576 226.327 523.339 223.227 522.285 220.411C518.235 220.969 514.372 219.419 510.347 219.481C510.111 219.791 509.634 220.411 509.398 220.721C508.79 220.888 508.189 221.062 507.6 221.236C507.495 224.12 507.246 227.003 507.265 229.893C506.936 229.924 506.285 229.986 505.963 230.011C504.171 232.485 500.822 231.809 498.286 232.566C497.901 233.701 497.951 234.923 497.839 236.113C497.113 236.132 496.388 236.15 495.675 236.175C495.501 236.423 495.166 236.919 494.999 237.167C496.016 241.477 494.25 277.601 494.205 278.221C493.293 278.196 492.531 278.519 491.979 279.238C492.345 277.582 490.174 277.167 489.573 278.568C490.168 276.863 488.302 276.528 487.142 276.05C486.981 276.503 486.658 277.414 486.497 277.867C485.319 277.718 484.14 277.625 482.968 277.6C482.503 278.115 482.038 278.629 481.573 279.138C481.188 280.223 480.804 281.315 480.426 282.406C479.415 282.511 478.41 282.623 477.412 282.728C477.17 274.778 477.753 266.827 477.921 258.883C477.834 258.685 477.673 258.294 477.586 258.102C475.688 257.823 473.766 258.015 471.868 258.121C472.953 262.514 472.774 259.284 471.918 282.654C469.685 282.611 467.465 282.989 465.245 282.896C464.183 280.314 466.232 204.224 466.287 203.603C465.27 203.423 464.265 203.256 463.267 203.076C462.944 201.11 464.179 198.363 462.442 196.961C459.211 196.713 455.794 197.252 452.811 195.659C452.941 194.654 453.065 193.65 453.189 192.651C450.944 192.006 448.556 192.211 446.429 193.153C446.404 194.102 446.392 195.057 446.379 196.012C443.167 197.792 439.452 197.364 435.967 198.021C435.961 198.858 435.967 199.695 435.979 200.539C435.7 200.849 435.148 201.463 434.869 201.773C434.999 202.226 435.266 203.131 435.396 203.584C434.261 203.826 433.132 204.086 432.01 204.341C432.203 206.838 430.542 251.464 430.137 267.578C426.329 268.998 422.143 267.894 418.298 269.122C417.74 270.449 418.007 271.993 417.796 273.407C417.238 272.607 416.717 271.782 416.227 270.951C414.683 270.356 413.027 270.411 411.408 270.492C411.241 269.475 411.067 268.464 410.906 267.459C411.284 265.964 411.452 264.426 411.551 262.901C407.737 262.969 403.935 262.535 400.129 262.634C399.893 261.493 399.657 260.358 399.415 259.217C389.529 259.953 394.488 258.076 388.018 259.242C387.671 260.445 387.292 261.648 386.753 262.783C385.742 260.892 385.351 258.771 385.488 256.643C383.652 256.389 381.947 255.7 380.192 255.186C378.629 255.05 377.221 255.924 375.721 256.178C373.954 256.451 372.168 256.556 370.412 256.842C370.629 258.752 370.641 260.675 370.617 262.597C365.177 262.861 368.869 264.168 349.401 264.048C349.63 265.226 349.885 266.411 350.145 267.589C349.636 267.527 348.458 268.426 348.514 267.49C348.508 264.439 349.029 261.375 348.582 258.337C348.904 256.393 350.315 203.133 350.362 199.962C349.302 196.303 349.779 192.495 349.86 188.743C346.182 188.755 342.517 188.514 338.846 188.414C339.379 187.899 339.906 187.385 340.446 186.87C340.272 186.535 339.925 185.865 339.751 185.53C338.418 185.753 337.153 186.218 335.987 186.888C336.105 187.366 336.34 188.333 336.458 188.817C330.722 188.222 325.128 190.312 319.422 190.169C318.944 190.547 318.473 190.932 318.008 191.316C318.328 198.421 313.986 196.952 317.437 198.659C316.389 198.721 315.341 198.802 314.299 198.882C314.274 198.057 314.256 197.232 314.231 196.414C312.544 196.78 310.51 196.538 309.288 197.989C308.333 198.963 307.068 199.484 305.809 199.936C305.722 202.596 305.673 205.251 305.722 207.911C304.079 208.153 302.435 208.426 300.798 208.674C300.736 210.869 300.674 213.058 300.631 215.254C299.515 215.645 298.045 215.57 297.319 216.662C298.001 217.481 298.801 218.206 299.583 218.938C299.112 219.428 298.64 219.924 298.175 220.42C298.485 220.786 298.801 221.158 299.124 221.53C298.256 222.572 298.398 223.849 298.727 225.083C298.206 225.405 297.685 225.722 297.17 226.05C297.244 225.163 297.319 224.283 297.406 223.402C294.179 221.244 294.808 221.377 294.584 214.714C293.573 214.472 292.55 214.249 291.533 214.044C291.372 210.751 292.662 207.08 290.609 204.146C290.603 203.451 290.609 202.757 290.615 202.068C290.336 201.863 289.784 201.448 289.511 201.243C289.468 198.998 289.381 196.753 289.263 194.521C288.984 194.521 288.413 194.521 288.128 194.527C287.843 196.772 287.508 199.017 287.167 201.262C286.683 201.572 286.2 201.882 285.716 202.198C285.728 202.657 285.753 203.575 285.766 204.034C285.295 204.487 284.854 204.97 284.445 205.485C284.333 208.356 284.402 211.234 284.222 214.111C283.224 214.13 282.231 214.154 281.245 214.185C281.264 217.577 280.743 221.001 279.025 223.971C277.741 224.213 276.501 224.622 275.41 225.348C275.298 225.063 275.081 224.486 274.97 224.201C276.272 221.72 275.621 218.892 275.565 216.232C274.56 216.213 273.549 216.201 272.545 216.201C272.607 213.274 272.799 210.353 272.867 207.432C272.563 207.209 271.962 206.775 271.658 206.551C271.689 205.794 271.732 205.044 271.77 204.294C271.485 204.058 270.914 203.593 270.629 203.358C270.474 201.169 270.586 198.967 270.356 196.784C268.604 194.531 268.535 200.673 268.458 202.905C268.111 203.128 267.416 203.575 267.075 203.798C267.001 204.592 266.932 205.392 266.87 206.198C266.399 206.644 265.934 207.097 265.475 207.55C265.425 210.31 265.444 213.076 265.277 215.835C264.303 215.947 263.336 216.058 262.368 216.17C262.628 219.618 261.711 222.936 259.881 225.844C259.093 225.943 258.318 226.086 257.549 226.266C255.354 229.212 255.893 233.026 255.93 236.461C254.001 236.61 252.079 236.734 250.156 236.833C250.181 238.191 250.218 239.543 250.249 240.907C249.66 240.957 248.475 241.068 247.886 241.124C247.917 240.206 247.917 239.295 247.886 238.389C247.16 237.31 245.715 236.969 244.984 235.896C244.519 234.271 244.587 232.566 244.488 230.898C243.545 229.844 243.1 228.225 241.835 227.568C239.41 229.087 238.995 232.201 238.492 234.805C238.287 236.771 235.894 236.982 234.982 238.445C234.877 239.357 234.895 240.274 234.883 241.199C234.424 241.23 233.512 241.292 233.06 241.323C232.223 244.963 232.297 248.721 231.944 252.424C231.249 252.548 230.561 252.684 229.879 252.827C229.308 253.974 228.056 253.931 226.964 254.005C226.406 253.496 225.848 253.007 225.283 252.517C224.669 253.243 224.061 253.968 223.447 254.694C223.286 256.412 223.125 258.13 223.001 259.847C222.189 260.101 221.376 260.362 220.576 260.622C220.626 262.321 220.675 264.027 220.743 265.732C218.393 265.782 216.042 265.825 213.704 266.017C213.791 267.115 213.89 268.225 213.983 269.335C212.935 269.422 211.899 269.509 210.857 269.595C211.055 271.145 211.186 272.714 211.136 274.283C210.64 274.37 209.635 274.537 209.139 274.624C208.829 275.12 208.519 275.622 208.221 276.125C206.423 276.379 204.618 276.553 202.807 276.578C202.274 277.787 201.926 279.065 201.79 280.38C201.126 281.335 200.271 282.129 198.999 281.949C199.541 279.165 199.468 262.146 199.458 261.068C194.894 260.752 190.323 260.597 185.759 260.349C186.243 257.713 186.423 255.022 185.982 252.368C183.954 252.343 182.18 251.407 180.425 250.508C178.242 251.327 176.047 252.288 173.622 252.275C173.926 254.532 174.31 256.796 174.18 259.084C172.32 259.208 172.344 257.503 172.214 256.107C170.912 256.15 169.616 256.206 168.319 256.256C168.04 245.906 169.045 235.586 168.964 225.236C167.178 224.759 165.367 224.43 163.538 224.256C163.445 223.4 163.352 222.544 163.265 221.695C162.341 220.87 161.429 220.039 160.499 219.221C160.499 217.77 160.561 216.325 160.654 214.886C159.581 214.681 158.521 214.471 157.46 214.235C154.781 214.93 151.978 214.074 149.33 214.731C149.231 216.108 149.268 217.503 149.249 218.892C147.407 220.418 147.544 222.855 147.55 225.013C144.871 225.199 141.138 223.58 139.308 226.247C138.322 227.239 140.04 228.188 139.662 229.286C135.147 228.883 130.688 229.813 126.217 230.204C125.746 230.576 125.274 230.954 124.809 231.339C121.708 230.558 118.694 231.953 115.594 231.953C115.563 234.88 115.613 237.875 114.676 240.691C113.944 243.674 114.279 246.8 113.857 249.838C112.97 249.832 112.083 249.832 111.203 249.838C111.209 247.215 111.228 244.591 111.327 241.974C108.784 240.839 105.932 241.354 103.271 240.734C103.128 238.408 103.147 236.083 103.277 233.763C99.1034 233.348 94.8804 233.186 90.7004 233.583C90.5024 235.952 90.2974 238.327 89.9504 240.684C87.3335 240.709 84.7225 240.808 82.1245 241.124C80.5305 261.895 82.6385 259.291 78.8125 259.543C78.9175 258.03 79.0045 256.517 79.0485 255.003C75.2845 254.488 71.4516 255.102 67.7186 254.333C67.7496 252.919 67.9476 251.486 67.6816 250.091C66.9186 249.973 66.1496 249.88 65.3806 249.818C65.2566 248.361 65.0956 246.909 64.9156 245.465C64.6556 245.211 64.1346 244.708 63.8736 244.46C61.6166 244.367 59.3526 244.33 57.0956 244.311C57.0086 246.047 56.9096 247.79 56.8356 249.533C56.0417 249.614 55.2547 249.694 54.4667 249.781C54.3057 251.22 54.1997 252.665 54.1137 254.11C53.8407 254.203 53.2827 254.395 53.0037 254.495C52.8177 249.831 53.1337 245.174 53.2827 240.523C52.0737 240.387 50.8577 240.269 49.6427 240.176C47.0447 237.361 49.3207 232.852 46.8087 230.067C46.0707 229.1 45.1967 230.172 44.6757 230.737C43.1257 230.501 41.2957 229.478 39.8878 230.663C38.4178 231.593 37.0288 232.858 35.2118 233.007C34.0518 233.193 32.6068 232.672 31.8378 233.844C30.9508 229.497 33.0098 225.335 32.5078 220.982C31.3858 221.478 30.4058 222.315 29.2088 222.632C26.4428 223.097 23.7519 221.913 20.9859 222.142C21.1409 220.238 21.3329 217.683 18.9579 217.175C18.5489 219.042 18.2819 220.927 18.0459 222.825C14.4239 222.36 10.6349 222.267 7.08795 223.16C4.51397 225.194 4.91697 228.853 4.40297 231.774C2.93298 231.873 1.46299 231.774 0 231.6V353.752H2560V353.76ZM2041.08 184.967C2041.3 185.779 2041.48 186.604 2041.8 187.41C2042.5 188.216 2043.67 188.247 2044.67 188.563C2043.58 188.582 2042.51 188.625 2041.49 188.718C2041.01 187.522 2041.03 186.226 2041.08 184.967ZM1728.46 198.926C1729.31 198.951 1729.3 200.433 1728.83 200.929C1727.97 200.892 1727.93 199.404 1728.46 198.926ZM1597.51 204.39C1597.71 205.543 1597.71 206.716 1597.82 207.888C1597.51 207.919 1596.89 207.981 1596.59 208.012C1596.86 206.908 1595.97 204.644 1597.51 204.39Z" fill="black"/>
</svg>
